<?xml version="1.0" encoding="iso-8859-1"?>
<!-- Generator: Adobe Illustrator 19.0.0, SVG Export Plug-In . SVG Version: 6.00 Build 0)  -->
<svg version="1.1" id="Capa_1" xmlns="http://www.w3.org/2000/svg" xmlns:xlink="http://www.w3.org/1999/xlink" x="0px" y="0px"
	 viewBox="0 0 512 512" style="enable-background:new 0 0 512 512;" xml:space="preserve">
<path style="fill:#FF80BD;" d="M461.167,102.329V54.963c0-2.42-1.962-4.816-4.382-4.816c-4.75,0-199.955,0-201.814,0v4.03V99.05
	c0,2.13,1.662,3.86,3.787,4.016c26.306,1.938,47.046,22.864,47.046,49.664s-20.74,47.728-47.046,49.664
	c-2.125,0.157-3.787,1.886-3.787,4.016v48.901v0.434h48.902c2.13,0,3.86,1.663,4.016,3.787
	c1.937,26.305,23.894,47.046,50.695,47.046s48.758-20.741,50.695-47.046c0.157-2.124,1.886-3.787,4.016-3.787h47.872v-51.75
	c28.074,0,50.833-22.759,50.833-50.833C512,125.088,489.241,102.329,461.167,102.329z"/>
<path style="fill:#F962B1;" d="M276.605,206.41c0-2.13,1.662-3.86,3.787-4.016c26.306-1.937,47.046-22.864,47.046-49.664
	s-20.74-47.727-47.046-49.664c-2.125-0.157-3.787-1.886-3.787-4.016V54.176v-4.03H254.97v4.03v44.873c0,2.13,1.662,3.86,3.787,4.016
	c26.306,1.937,47.046,22.864,47.046,49.664s-20.74,47.728-47.046,49.664c-2.124,0.157-3.787,1.886-3.787,4.016v48.902v0.434h21.635
	v-0.434V206.41z"/>
<path style="fill:#FFC850;" d="M256,98.019V50.147h-48.006c-2.053,0-3.801-1.543-3.999-3.587
	c-2.494-25.745-24.179-45.873-50.578-45.873s-48.084,20.128-50.578,45.873c-0.198,2.044-1.946,3.587-3.999,3.587H54.863
	c-2.226,0-4.03,1.804-4.03,4.03v201.136h51.75c0-28.076,22.759-50.833,50.833-50.833s50.833,22.759,50.833,50.833H256v-47.872
	c0-2.092,1.601-3.86,3.688-4.009c26.353-1.889,47.146-23.868,47.146-50.702c0-26.835-20.793-48.813-47.146-50.702
	C257.601,101.878,256,100.11,256,98.019z"/>
<path style="fill:#9BF57D;" d="M358.584,306.146c-26.835,0-48.813-20.793-50.702-47.146c-0.15-2.086-1.917-3.688-4.009-3.688H256
	v51.75c-28.074,0-50.833,22.759-50.833,50.833c0,28.074,22.759,50.833,50.833,50.833v51.75h47.872c2.092,0,3.86,1.601,4.009,3.688
	c1.889,26.353,23.868,47.146,50.702,47.146c26.835,0,48.813-20.793,50.702-47.146c0.15-2.086,1.917-3.688,4.009-3.688h43.843
	c2.226,0,4.03-1.804,4.03-4.03V255.313h-47.872c-2.092,0-3.86,1.601-4.009,3.688C407.396,285.353,385.417,306.146,358.584,306.146z"
	/>
<g>
	<path style="fill:#7CE854;" d="M225.772,357.896c0-26.257,19.907-47.864,45.452-50.552c3.074-0.323,5.382-2.963,5.382-6.054
		v-45.977H256v51.75c-28.074,0-50.833,22.759-50.833,50.833c0,28.074,22.759,50.833,50.833,50.833v51.75h20.605v-46.555
		c0-2.837-2.177-5.161-5.001-5.437C245.877,405.975,225.772,384.283,225.772,357.896z"/>
	<path style="fill:#7CE854;" d="M328.487,464.167c-0.15-2.086-1.917-3.688-4.009-3.688h-20.605c2.092,0,3.86,1.602,4.009,3.688
		c1.889,26.353,23.868,47.146,50.702,47.146c3.531,0,6.974-0.369,10.302-1.054C346.921,505.735,330.127,487.053,328.487,464.167z"/>
</g>
<path style="fill:#00AAF0;" d="M205.166,357.896c0-28.075,22.759-50.833,50.833-50.833v-51.75h-51.749
	c0-28.076-22.759-50.833-50.833-50.833s-50.833,22.759-50.833,50.833H50.833v47.872c0,2.13-1.662,3.86-3.787,4.016
	C20.74,309.138,0,331.094,0,357.896c0,26.801,20.74,48.758,47.046,50.695c2.125,0.157,3.787,1.886,3.787,4.016v43.843
	c0,2.226,1.804,4.03,4.03,4.03H256v-51.75C227.925,408.729,205.166,385.97,205.166,357.896z"/>
<g>
	<path style="fill:#F9B428;" d="M75.125,50.146H54.863c-2.225,0-4.03,1.804-4.03,4.03v201.137h20.262V54.176
		C71.095,51.951,72.899,50.146,75.125,50.146z"/>
	<path style="fill:#F9B428;" d="M123.101,46.559c2.166-22.361,18.812-40.475,40.447-44.853c-3.274-0.663-6.66-1.019-10.131-1.019
		c-26.4,0-48.084,20.128-50.578,45.873c-0.197,2.044-1.946,3.586-3.999,3.586h20.262C121.155,50.146,122.902,48.603,123.101,46.559z
		"/>
</g>
<path style="fill:#039ADD;" d="M71.095,456.449v-43.843c0-2.13-1.662-3.86-3.787-4.016c-26.306-1.937-47.047-23.895-47.047-50.695
	c0-26.802,20.741-48.758,47.047-50.695c2.124-0.157,3.787-1.886,3.787-4.016v-47.871H50.833v47.872c0,2.13-1.662,3.86-3.787,4.016
	C20.74,309.138,0,331.094,0,357.896c0,26.801,20.74,48.758,47.046,50.695c2.125,0.157,3.787,1.886,3.787,4.016v43.843
	c0,2.225,1.804,4.03,4.03,4.03h20.262C72.899,460.479,71.095,458.675,71.095,456.449z"/>
<g>
</g>
<g>
</g>
<g>
</g>
<g>
</g>
<g>
</g>
<g>
</g>
<g>
</g>
<g>
</g>
<g>
</g>
<g>
</g>
<g>
</g>
<g>
</g>
<g>
</g>
<g>
</g>
<g>
</g>
</svg>
