<?xml version="1.0" encoding="iso-8859-1"?>
<!-- Generator: Adobe Illustrator 19.0.0, SVG Export Plug-In . SVG Version: 6.00 Build 0)  -->
<svg xmlns="http://www.w3.org/2000/svg" xmlns:xlink="http://www.w3.org/1999/xlink" version="1.1" id="Capa_1" x="0px" y="0px" viewBox="0 0 512 512" style="enable-background:new 0 0 512 512;" xml:space="preserve">
<path style="fill:#FF8087;" d="M378.021,123.871l35.983-79.164c2.485-5.467-1.512-11.675-7.518-11.675H254.15  c-4.561,0-8.258,3.697-8.258,8.258v173.42h160.594c6.006,0,10.003-6.208,7.518-11.675L378.021,123.871z"/>
<path style="fill:#DC4655;" d="M297.764,58.969L249.34,34.757c-2.039,1.504-3.449,3.806-3.449,6.534v24.774h50.198  C300.042,66.065,301.3,60.736,297.764,58.969z"/>
<g>
	<rect x="138.54" y="66.06" style="fill:#4B3F4E;" width="33.03" height="16.516"/>
	<rect x="138.54" y="231.23" style="fill:#4B3F4E;" width="33.03" height="16.516"/>
</g>
<path style="fill:#E6646E;" d="M295.44,256H171.569c-4.561,0-8.258-3.697-8.258-8.258V66.065c0-4.561,3.697-8.258,8.258-8.258  H295.44c4.561,0,8.258,3.697,8.258,8.258v181.677C303.698,252.303,300.001,256,295.44,256z"/>
<rect x="130.28" y="24.774" style="fill:#6F6571;" width="16.516" height="462.45"/>
<g>
	<path style="fill:#C0BCC1;" d="M171.569,512h-66.065c-4.561,0-8.258-3.697-8.258-8.258v-8.258c0-9.122,7.395-16.516,16.516-16.516   h49.548c9.122,0,16.516,7.395,16.516,16.516v8.258C179.827,508.303,176.13,512,171.569,512z"/>
	<circle style="fill:#C0BCC1;" cx="138.54" cy="16.516" r="16.516"/>
</g>
<g>
	<path style="fill:#AEA8AF;" d="M122.021,503.742v-8.258c0-9.122,7.395-16.516,16.516-16.516h-24.774   c-9.121,0-16.516,7.394-16.516,16.516v8.258c0,4.56,3.697,8.258,8.258,8.258h24.774C125.718,512,122.021,508.302,122.021,503.742z"/>
	<path style="fill:#AEA8AF;" d="M146.795,24.774c-9.121,0-16.516-7.395-16.516-16.516c0-2.42,0.549-4.702,1.485-6.773   c-5.735,2.59-9.743,8.33-9.743,15.031c0,9.121,7.395,16.516,16.516,16.516c6.701,0,12.442-4.008,15.031-9.743   C151.497,24.225,149.215,24.774,146.795,24.774z"/>
</g>
<g>
</g>
<g>
</g>
<g>
</g>
<g>
</g>
<g>
</g>
<g>
</g>
<g>
</g>
<g>
</g>
<g>
</g>
<g>
</g>
<g>
</g>
<g>
</g>
<g>
</g>
<g>
</g>
<g>
</g>
</svg>
