<?xml version="1.0" encoding="iso-8859-1"?>
<!-- Generator: Adobe Illustrator 19.0.0, SVG Export Plug-In . SVG Version: 6.00 Build 0)  -->
<svg version="1.1" id="Capa_1" xmlns="http://www.w3.org/2000/svg" xmlns:xlink="http://www.w3.org/1999/xlink" x="0px" y="0px"
	 viewBox="0 0 512 512" style="enable-background:new 0 0 512 512;" xml:space="preserve">
<path style="fill:#00C3FF;" d="M491.133,108.794H261.085v105.283c0,7.966-6.518,14.485-14.484,14.485h-17.184
	c-2.403,0-4.351,1.948-4.351,4.351v49.062c0,3.66-4.543,5.356-6.941,2.591l-45.734-52.709c-1.816-2.093-4.451-3.295-7.222-3.295
	h-33.748v150.016c0,11.477,9.39,20.867,20.867,20.867h29.207c3.462,0,6.268,2.807,6.268,6.268v70.68c0,5.272,6.545,7.715,10,3.733
	l65.885-75.934c2.616-3.015,6.413-4.748,10.405-4.748h217.08c11.477,0,20.867-9.39,20.867-20.867V129.66
	C512,118.183,502.61,108.794,491.133,108.794z"/>
<g>
	<path style="fill:#00AAF0;" d="M152.026,378.577V228.562h-20.605v150.016c0,11.477,9.39,20.866,20.866,20.866h20.605
		C161.416,399.444,152.026,390.054,152.026,378.577z"/>
	<path style="fill:#00AAF0;" d="M208.368,405.712c0-3.461-2.806-6.268-6.268-6.268h-20.605c3.462,0,6.268,2.807,6.268,6.268v70.68
		c0,5.272,6.545,7.716,10,3.734l10.605-12.222V405.712z"/>
	<path style="fill:#00AAF0;" d="M460.358,163.663H261.085v15.454h199.274c4.267,0,7.727-3.459,7.727-7.727
		S464.626,163.663,460.358,163.663z"/>
	<path style="fill:#00AAF0;" d="M460.358,206.626H261.085v7.451c0,2.953-0.899,5.705-2.433,8.002h201.706
		c4.267,0,7.727-3.459,7.727-7.727S464.626,206.626,460.358,206.626z"/>
	<path style="fill:#00AAF0;" d="M460.358,249.589c-9.573,0-157.882,0-235.292,0v15.454c77.416,0,225.746,0,235.292,0
		c4.267,0,7.727-3.459,7.727-7.727C468.085,253.048,464.626,249.589,460.358,249.589z"/>
	<path style="fill:#00AAF0;" d="M187.776,249.589c-4.636,0-7.635,0-8.618,0c-4.267,0-7.727,3.459-7.727,7.727
		c0,4.267,3.459,7.727,7.727,7.727c1.729,0,9.741,0,22.027,0L187.776,249.589z"/>
	<path style="fill:#00AAF0;" d="M460.358,292.552h-281.2c-4.267,0-7.727,3.459-7.727,7.727c0,4.267,3.459,7.727,7.727,7.727h281.2
		c4.267,0,7.727-3.459,7.727-7.727C468.085,296.011,464.626,292.552,460.358,292.552z"/>
	<path style="fill:#00AAF0;" d="M460.358,335.515h-281.2c-4.267,0-7.727,3.459-7.727,7.727c0,4.267,3.459,7.727,7.727,7.727h281.2
		c4.267,0,7.727-3.459,7.727-7.727C468.085,338.974,464.626,335.515,460.358,335.515z"/>
</g>
<path style="fill:#FF80BD;" d="M249.691,29.9H14.484C6.518,29.9,0,36.418,0,44.384v172.784c0,7.966,6.518,14.484,14.484,14.484
	h150.684c2.771,0,5.406,1.202,7.222,3.295l45.734,52.709c2.398,2.764,6.941,1.068,6.941-2.592v-49.061
	c0-2.403,1.948-4.351,4.351-4.351h20.274c7.966,0,14.484-6.518,14.484-14.484V44.384C264.176,36.418,257.658,29.9,249.691,29.9z"/>
<g>
	<path style="fill:#F962B1;" d="M20.605,217.168V44.384c0-7.966,6.518-14.484,14.484-14.484H14.484C6.518,29.9,0,36.418,0,44.384
		v172.784c0,7.966,6.518,14.484,14.484,14.484h20.605C27.123,231.652,20.605,225.134,20.605,217.168z"/>
	<path style="fill:#F962B1;" d="M192.996,234.948c-1.816-2.093-4.451-3.295-7.222-3.295h-20.605c2.771,0,5.406,1.202,7.222,3.295
		l45.734,52.709c2.398,2.764,6.941,1.068,6.941-2.592v-13.156L192.996,234.948z"/>
</g>
<g>
	<circle style="fill:#E4EAF8;" cx="65.6" cy="131.84" r="15.656"/>
	<circle style="fill:#E4EAF8;" cx="130.21" cy="131.84" r="15.656"/>
	<circle style="fill:#E4EAF8;" cx="194.81" cy="131.84" r="15.656"/>
</g>
<g>
</g>
<g>
</g>
<g>
</g>
<g>
</g>
<g>
</g>
<g>
</g>
<g>
</g>
<g>
</g>
<g>
</g>
<g>
</g>
<g>
</g>
<g>
</g>
<g>
</g>
<g>
</g>
<g>
</g>
</svg>
