<?xml version="1.0" encoding="iso-8859-1"?>
<!-- Generator: Adobe Illustrator 19.0.0, SVG Export Plug-In . SVG Version: 6.00 Build 0)  -->
<svg version="1.1" id="Capa_1" xmlns="http://www.w3.org/2000/svg" xmlns:xlink="http://www.w3.org/1999/xlink" x="0px" y="0px"
	 viewBox="0 0 512.001 512.001" style="enable-background:new 0 0 512.001 512.001;" xml:space="preserve">
<path style="fill:#FF5050;" d="M355.205,73.536h-50.952v44.449h49.62c1.424,0,2.256-1.606,1.434-2.769l-11.802-16.699
	c-1.168-1.652-1.168-3.861,0-5.513l12.571-17.787C356.575,74.511,356.07,73.536,355.205,73.536z"/>
<rect x="304.25" y="73.531" style="fill:#ED3A3A;" width="28.332" height="44.45"/>
<path style="fill:#E4EAF8;" d="M304.253,167.363c-4.267,0-7.727-3.459-7.727-7.727V68.523c0-4.267,3.459-7.727,7.727-7.727
	s7.727,3.459,7.727,7.727v91.112C311.98,163.903,308.52,167.363,304.253,167.363z"/>
<path style="fill:#FFC850;" d="M214.435,276.228l-41.429-65.49c-2.686-4.245-8.878-4.245-11.564,0
	c-2.307,3.647-129.914,205.366-132.277,209.101h94.422L214.435,276.228L214.435,276.228z"/>
<g>
	<path style="fill:#F9B428;" d="M178.115,218.813l-5.108-8.075c-2.686-4.245-8.878-4.245-11.564,0
		c-2.31,3.651-129.946,205.416-132.277,209.101h21.781C59.339,406.572,174.516,224.503,178.115,218.813z"/>
	<path style="fill:#F9B428;" d="M485.949,419.839H122.557l90.848-143.611l83.531-132.045c3.398-5.372,11.235-5.372,14.633,0
		L485.949,419.839z"/>
</g>
<path style="fill:#E59F23;" d="M315.071,149.718l-3.501-5.534c-3.399-5.372-11.235-5.372-14.633,0l-83.531,132.045L122.558,419.84
	h21.635l90.848-143.611L315.071,149.718z"/>
<path style="fill:#E4EAF8;" d="M502.274,451.206H9.726c-5.349,0-9.726-4.377-9.726-9.726v-12.945c0-5.349,4.377-9.726,9.726-9.726
	h492.549c5.349,0,9.726,4.377,9.726,9.726v12.945C512,446.829,507.624,451.206,502.274,451.206z"/>
<path style="fill:#D8DCE5;" d="M501.98,435.007H10.02c-4.854,0-8.927-3.499-9.83-8.099C0.068,427.531,0,428.172,0,428.829v12.357
	c0,5.511,4.509,10.02,10.02,10.02h491.96c5.511,0,10.02-4.509,10.02-10.02v-12.357c0-0.657-0.068-1.298-0.19-1.921
	C510.907,431.508,506.834,435.007,501.98,435.007z"/>
<g>
</g>
<g>
</g>
<g>
</g>
<g>
</g>
<g>
</g>
<g>
</g>
<g>
</g>
<g>
</g>
<g>
</g>
<g>
</g>
<g>
</g>
<g>
</g>
<g>
</g>
<g>
</g>
<g>
</g>
</svg>
