<?xml version="1.0" encoding="iso-8859-1"?>
<!-- Generator: Adobe Illustrator 19.0.0, SVG Export Plug-In . SVG Version: 6.00 Build 0)  -->
<svg version="1.1" id="Capa_1" xmlns="http://www.w3.org/2000/svg" xmlns:xlink="http://www.w3.org/1999/xlink" x="0px" y="0px"
	 viewBox="0 0 512 512" style="enable-background:new 0 0 512 512;" xml:space="preserve">
<path style="fill:#00C3FF;" d="M256,512C114.841,512,0,397.159,0,256S114.841,0,256,0s256,114.841,256,256S397.159,512,256,512z"/>
<path style="fill:#00AAF0;" d="M20.605,256c0-137.707,109.298-250.347,245.697-255.775C262.883,0.089,259.452,0,256,0
	C114.841,0,0,114.841,0,256s114.841,256,256,256c3.452,0,6.883-0.089,10.302-0.225C129.903,506.347,20.605,393.707,20.605,256z"/>
<path style="fill:#E4EAF8;" d="M256,44.393C139.32,44.393,44.393,139.32,44.393,256S139.32,467.607,256,467.607
	S467.607,372.68,467.607,256S372.68,44.393,256,44.393z"/>
<path style="fill:#D8DCE5;" d="M64.998,256c0-113.226,89.391-205.961,201.304-211.353c-3.414-0.164-6.848-0.254-10.302-0.254
	C139.32,44.393,44.393,139.32,44.393,256c0,120.274,100.797,217.188,221.909,211.353C154.389,461.961,64.998,369.226,64.998,256z"/>
<g>
	<path style="fill:#C3C8D1;" d="M256,44.393c-2.588,0-5.161,0.063-7.727,0.156v29.44c0,4.267,3.459,7.727,7.727,7.727
		s7.727-3.459,7.727-7.727v-29.44C261.161,44.456,258.588,44.393,256,44.393z"/>
	<path style="fill:#C3C8D1;" d="M256,430.698c-4.267,0-7.727,3.459-7.727,7.727v29.027c5.737,0.207,9.704,0.208,15.454,0v-29.027
		C263.727,434.157,260.267,430.698,256,430.698z"/>
	<path style="fill:#C3C8D1;" d="M158.2,102.265c2.134,3.696,6.86,4.962,10.555,2.828c3.696-2.133,4.962-6.859,2.828-10.555
		l-14.694-25.45c-4.557,2.426-9.015,5.013-13.367,7.755L158.2,102.265z"/>
	<path style="fill:#C3C8D1;" d="M353.8,410.148c-2.133-3.696-6.86-4.96-10.555-2.828c-3.696,2.134-4.962,6.86-2.828,10.555
		l14.511,25.134c4.559-2.422,9.02-5.004,13.374-7.742L353.8,410.148z"/>
	<path style="fill:#C3C8D1;" d="M94.331,171.789c3.695,2.134,8.421,0.868,10.555-2.828s0.868-8.422-2.828-10.555l-25.365-14.644
		c-2.736,4.356-5.317,8.817-7.738,13.377L94.331,171.789z"/>
	<path style="fill:#C3C8D1;" d="M417.669,340.624c-3.696-2.134-8.422-0.868-10.555,2.828c-2.134,3.695-0.868,8.421,2.828,10.555
		l25.175,14.535c2.744-4.351,5.332-8.808,7.76-13.364L417.669,340.624z"/>
	<path style="fill:#C3C8D1;" d="M44.557,263.934h29.225c4.267,0,7.727-3.459,7.727-7.727s-3.459-7.727-7.727-7.727H44.541
		c-0.088,2.497-0.148,5.002-0.148,7.52C44.393,258.658,44.46,261.299,44.557,263.934z"/>
	<path style="fill:#C3C8D1;" d="M430.491,256.207c0,4.268,3.459,7.727,7.727,7.727h29.225c0.098-2.634,0.164-5.276,0.164-7.934
		c0-2.518-0.06-5.023-0.148-7.52h-29.241C433.951,248.48,430.491,251.939,430.491,256.207z"/>
	<path style="fill:#C3C8D1;" d="M94.331,340.624l-25.208,14.554c2.428,4.556,5.016,9.013,7.76,13.364l25.175-14.535
		c3.696-2.134,4.962-6.86,2.828-10.555C102.753,339.756,98.027,338.491,94.331,340.624z"/>
	<path style="fill:#C3C8D1;" d="M417.669,171.789l25.375-14.65c-2.42-4.56-5.001-9.021-7.737-13.377l-25.364,14.644
		c-3.696,2.134-4.962,6.86-2.828,10.555C409.248,172.657,413.974,173.923,417.669,171.789z"/>
	<path style="fill:#C3C8D1;" d="M168.755,407.32c-3.696-2.133-8.422-0.868-10.555,2.828l-14.502,25.118
		c4.355,2.738,8.815,5.32,13.374,7.742l14.511-25.134C173.717,414.179,172.45,409.454,168.755,407.32z"/>
	<path style="fill:#C3C8D1;" d="M355.111,69.088l-14.694,25.45c-2.134,3.696-0.868,8.422,2.828,10.555
		c3.695,2.134,8.421,0.868,10.555-2.828l14.677-25.422C364.126,74.101,359.668,71.514,355.111,69.088z"/>
</g>
<g>
	<path style="fill:#707487;" d="M285.688,126.428L261.57,102.31c-1.449-1.449-3.414-2.263-5.464-2.263
		c-2.049,0-4.015,0.814-5.464,2.263l-24.118,24.118c-3.018,3.017-3.018,7.91,0,10.927c3.017,3.017,7.91,3.017,10.927,0
		l10.821-10.821v129.778c0,4.268,3.459,7.727,7.727,7.727s7.727-3.459,7.727-7.727v-129.99l11.034,11.034
		c1.509,1.509,3.486,2.263,5.464,2.263c1.977,0,3.955-0.755,5.464-2.263C288.706,134.338,288.706,129.445,285.688,126.428z"/>
	<path style="fill:#707487;" d="M371.073,250.743l-24.118-24.118c-3.017-3.016-7.91-3.016-10.927,0
		c-3.018,3.018-3.018,7.91,0,10.928l11.032,11.032h-90.953c-4.267,0-7.727,3.459-7.727,7.727c0,4.268,3.459,7.727,7.727,7.727
		h90.744l-10.822,10.822c-3.018,3.018-3.018,7.91,0,10.928c3.018,3.017,7.91,3.016,10.927,0l24.118-24.117
		C374.088,258.655,374.09,253.761,371.073,250.743z"/>
	<path style="fill:#707487;" d="M273.102,285.102h-34.204c-6.6,0-12-5.4-12-12v-34.204c0-6.6,5.4-12,12-12h34.204
		c6.6,0,12,5.4,12,12v34.204C285.102,279.702,279.702,285.102,273.102,285.102z"/>
</g>
<path style="fill:#5B5D6E;" d="M247.503,272.739v-33.478c0-6.8,5.563-12.363,12.363-12.363h-20.605
	c-6.8,0-12.363,5.563-12.363,12.363v33.478c0,6.8,5.563,12.363,12.363,12.363h20.605
	C253.066,285.102,247.503,279.539,247.503,272.739z"/>
<g>
</g>
<g>
</g>
<g>
</g>
<g>
</g>
<g>
</g>
<g>
</g>
<g>
</g>
<g>
</g>
<g>
</g>
<g>
</g>
<g>
</g>
<g>
</g>
<g>
</g>
<g>
</g>
<g>
</g>
</svg>
